<?xml version="1.0" encoding="UTF-8"?>
<!DOCTYPE svg PUBLIC "-//W3C//DTD SVG 1.1//EN" "http://www.w3.org/Graphics/SVG/1.1/DTD/svg11.dtd">
<svg xmlns="http://www.w3.org/2000/svg" version="1.1" width="450px" height="450px" style="shape-rendering:geometricPrecision; text-rendering:geometricPrecision; image-rendering:optimizeQuality; fill-rule:evenodd; clip-rule:evenodd" xmlns:xlink="http://www.w3.org/1999/xlink">
<g><path style="opacity:1" fill="#010101" d="M -0.5,-0.5 C 63.5,-0.5 127.5,-0.5 191.5,-0.5C 191.5,-0.166667 191.5,0.166667 191.5,0.5C 189.585,0.215521 187.919,0.548855 186.5,1.5C 167.764,3.35277 149.764,8.1861 132.5,16C 122.109,20.8586 112.109,26.192 102.5,32C 57.6146,62.2532 26.1146,103.087 8,154.5C 5.69633,161.684 4.02967,169.018 3,176.5C 2.27985,178.056 1.11318,179.056 -0.5,179.5C -0.5,119.5 -0.5,59.5 -0.5,-0.5 Z"/></g>
<g><path style="opacity:1" fill="#dde9e5" d="M 191.5,-0.5 C 197.5,-0.5 203.5,-0.5 209.5,-0.5C 204.495,0.28994 199.328,0.956606 194,1.5C 192.93,1.47196 192.097,1.13863 191.5,0.5C 191.5,0.166667 191.5,-0.166667 191.5,-0.5 Z"/></g>
<g><path style="opacity:1" fill="#010101" d="M 259.5,-0.5 C 322.833,-0.5 386.167,-0.5 449.5,-0.5C 449.5,62.1667 449.5,124.833 449.5,187.5C 439.835,135.566 415.502,91.3989 376.5,55C 359.515,40.1705 340.848,27.8372 320.5,18C 309.795,13.9888 299.128,9.98879 288.5,6C 283.668,5.25065 279.001,3.91731 274.5,2C 269.833,1.66667 265.167,1.33333 260.5,1C 259.944,0.617425 259.611,0.117425 259.5,-0.5 Z"/></g>
<g><path style="opacity:1" fill="#fdfdfd" d="M 441.5,179.5 C 452.953,246.013 438.786,306.346 399,360.5C 375.866,389.126 347.7,411.126 314.5,426.5C 257.228,450.632 199.561,451.632 141.5,429.5C 84.4719,405.139 43.8052,364.472 19.5,307.5C 15.7634,297.29 12.4301,286.957 9.5,276.5C -7.9603,190.721 15.0397,117.888 78.5,58C 82.0426,54.9514 85.7093,52.1181 89.5,49.5C 143.112,9.05068 203.112,-4.78265 269.5,8C 360.672,31.3392 418.006,88.5059 441.5,179.5 Z"/></g>
<g><path style="opacity:1" fill="#d9dfdb" d="M 240.5,-0.5 C 246.833,-0.5 253.167,-0.5 259.5,-0.5C 259.611,0.117425 259.944,0.617425 260.5,1C 265.167,1.33333 269.833,1.66667 274.5,2C 279.001,3.91731 283.668,5.25065 288.5,6C 299.128,9.98879 309.795,13.9888 320.5,18C 340.848,27.8372 359.515,40.1705 376.5,55C 415.502,91.3989 439.835,135.566 449.5,187.5C 449.5,190.167 449.5,192.833 449.5,195.5C 448.833,198.5 448.167,201.5 447.5,204.5C 447.825,197.38 447.159,190.38 445.5,183.5C 432.204,116.741 396.537,65.5742 338.5,30C 307.799,13.0002 275.133,2.83355 240.5,-0.5 Z"/></g>
<g><path style="opacity:1" fill="#276134" d="M 209.5,-0.5 C 219.833,-0.5 230.167,-0.5 240.5,-0.5C 275.133,2.83355 307.799,13.0002 338.5,30C 396.537,65.5742 432.204,116.741 445.5,183.5C 444.527,181.861 443.194,180.527 441.5,179.5C 418.006,88.5059 360.672,31.3392 269.5,8C 203.112,-4.78265 143.112,9.05068 89.5,49.5C 88.0998,48.8999 87.0998,47.8999 86.5,46.5C 116.683,23.2092 150.683,8.37582 188.5,2C 187.906,1.53566 187.239,1.36899 186.5,1.5C 187.919,0.548855 189.585,0.215521 191.5,0.5C 192.097,1.13863 192.93,1.47196 194,1.5C 199.328,0.956606 204.495,0.28994 209.5,-0.5 Z"/></g>
<g><path style="opacity:1" fill="#6e816e" d="M 284.5,112.5 C 284.44,113.043 284.107,113.376 283.5,113.5C 282.832,111.031 282.165,108.698 281.5,106.5C 281.581,100.081 281.414,93.7477 281,87.5C 281.667,88.1667 282.333,88.8333 283,89.5C 283.171,97.3443 283.671,105.011 284.5,112.5 Z"/></g>
<g><path style="opacity:1" fill="#e1e7dd" d="M 186.5,1.5 C 187.239,1.36899 187.906,1.53566 188.5,2C 150.683,8.37582 116.683,23.2092 86.5,46.5C 40.5479,83.0501 12.5479,130.383 2.5,188.5C 1.02849,192.919 0.361822,197.586 0.5,202.5C 0.67158,203.492 0.338246,204.158 -0.5,204.5C -0.5,196.167 -0.5,187.833 -0.5,179.5C 1.11318,179.056 2.27985,178.056 3,176.5C 4.02967,169.018 5.69633,161.684 8,154.5C 26.1146,103.087 57.6146,62.2532 102.5,32C 112.109,26.192 122.109,20.8586 132.5,16C 149.764,8.1861 167.764,3.35277 186.5,1.5 Z"/></g>
<g><path style="opacity:1" fill="#2e5e3a" d="M 86.5,46.5 C 87.0998,47.8999 88.0998,48.8999 89.5,49.5C 85.7093,52.1181 82.0426,54.9514 78.5,58C 15.0397,117.888 -7.9603,190.721 9.5,276.5C 8.73209,275.737 8.23209,274.737 8,273.5C 7.33333,274.833 6.66667,274.833 6,273.5C 5.53566,274.094 5.36899,274.761 5.5,275.5C 3.3918,264.517 1.3918,253.517 -0.5,242.5C -0.5,229.833 -0.5,217.167 -0.5,204.5C 0.338246,204.158 0.67158,203.492 0.5,202.5C 1.97151,198.081 2.63818,193.414 2.5,188.5C 12.5479,130.383 40.5479,83.0501 86.5,46.5 Z"/></g>
<g><path style="opacity:1" fill="#aebaa3" d="M 267.5,97.5 C 265.823,100.025 264.323,102.691 263,105.5C 261.961,104.756 261.461,103.756 261.5,102.5C 262.59,100.563 263.924,98.73 265.5,97C 266.437,96.3083 267.103,96.475 267.5,97.5 Z"/></g>
<g><path style="opacity:1" fill="#c1ccbe" d="M 313.5,106.5 C 310.018,104.648 307.185,105.314 305,108.5C 304.383,107.551 304.549,106.718 305.5,106C 302.833,105 302.833,104 305.5,103C 304.295,101.624 302.962,100.458 301.5,99.5C 301.783,98.7109 302.283,98.0442 303,97.5C 306.692,100.365 310.192,103.365 313.5,106.5 Z"/></g>
<g><path style="opacity:1" fill="#1d7a3c" d="M 281.5,106.5 C 282.165,108.698 282.832,111.031 283.5,113.5C 284.107,113.376 284.44,113.043 284.5,112.5C 287.468,104.696 292.801,99.5292 300.5,97C 298.008,99.8118 296.508,102.978 296,106.5C 297.666,104.004 299.5,101.671 301.5,99.5C 302.962,100.458 304.295,101.624 305.5,103C 302.833,104 302.833,105 305.5,106C 304.549,106.718 304.383,107.551 305,108.5C 307.185,105.314 310.018,104.648 313.5,106.5C 316.04,107.747 318.706,108.747 321.5,109.5C 320.395,110.892 319.061,112.059 317.5,113C 319.577,113.192 321.577,113.692 323.5,114.5C 321.164,116.666 318.664,118.666 316,120.5C 311.98,118.66 307.813,117.326 303.5,116.5C 300.167,113.833 296.833,113.833 293.5,116.5C 290.75,119.055 287.75,121.388 284.5,123.5C 283.355,124.891 283.355,126.224 284.5,127.5C 289.907,122.456 296.24,120.289 303.5,121C 304.851,122.617 306.518,123.784 308.5,124.5C 303.356,125.049 298.356,125.882 293.5,127C 301.986,126.227 309.653,128.227 316.5,133C 313.167,133.333 309.833,133.667 306.5,134C 309.722,134.199 312.722,135.032 315.5,136.5C 313.716,138.48 311.383,139.48 308.5,139.5C 305.483,139.232 302.483,138.898 299.5,138.5C 299.5,139.5 299.5,140.5 299.5,141.5C 296.155,137.642 292.155,134.475 287.5,132C 286.809,130.933 286.309,129.766 286,128.5C 285.506,130.134 285.34,131.801 285.5,133.5C 292.852,135.346 296.685,140.013 297,147.5C 294.191,143.39 291.025,139.557 287.5,136C 286.668,135.312 286.002,135.479 285.5,136.5C 286.189,138.444 286.689,140.444 287,142.5C 287.677,140.311 288.844,139.978 290.5,141.5C 291.851,144.196 293.684,146.53 296,148.5C 296.667,149.5 296.667,150.5 296,151.5C 294.871,149.859 293.371,148.859 291.5,148.5C 292.122,149.627 292.955,150.627 294,151.5C 294.667,152.5 294.667,153.5 294,154.5C 291.404,152.912 289.071,150.912 287,148.5C 286.833,148.833 286.667,149.167 286.5,149.5C 288.19,152.024 290.357,154.024 293,155.5C 294.598,157.895 294.764,160.228 293.5,162.5C 293.631,161.624 293.298,160.957 292.5,160.5C 291.167,162.5 289.833,164.5 288.5,166.5C 287.833,165.5 287.167,164.5 286.5,163.5C 285.334,186.826 285.167,210.16 286,233.5C 286.692,234.025 287.192,234.692 287.5,235.5C 284.216,236.657 280.882,236.824 277.5,236C 278.191,234.933 278.691,233.766 279,232.5C 279.818,204.015 279.485,175.682 278,147.5C 277.333,148.167 276.667,148.833 276,149.5C 275.333,145.833 275.333,142.167 276,138.5C 277.21,135.801 276.543,135.801 274,138.5C 272.587,141.661 270.92,144.661 269,147.5C 267.493,146.495 266.327,145.162 265.5,143.5C 263.098,146.3 262.932,149.3 265,152.5C 266.739,155.979 268.406,159.312 270,162.5C 267.961,160.126 265.628,158.126 263,156.5C 261.748,158.001 260.748,159.668 260,161.5C 259.418,158.332 258.418,157.999 257,160.5C 256.245,157.503 257.078,155.003 259.5,153C 258.906,152.536 258.239,152.369 257.5,152.5C 256.97,150.595 257.637,148.761 259.5,147C 258.451,146.508 257.451,146.674 256.5,147.5C 256.167,147 255.833,146.5 255.5,146C 256.414,144.594 257.08,143.094 257.5,141.5C 258.167,141.167 258.833,140.833 259.5,140.5C 260.901,140.029 262.234,139.362 263.5,138.5C 259.472,136.155 255.472,133.822 251.5,131.5C 248.921,130.772 246.254,130.272 243.5,130C 245.167,129 246.833,128 248.5,127C 254.278,126.608 259.944,126.942 265.5,128C 263.088,126.232 260.421,125.065 257.5,124.5C 257.5,124.167 257.5,123.833 257.5,123.5C 259.857,123.663 262.19,123.497 264.5,123C 265.056,122.617 265.389,122.117 265.5,121.5C 271.233,121.7 275.899,124.033 279.5,128.5C 278.438,121.906 274.438,117.406 267.5,115C 262.625,114.247 257.792,114.414 253,115.5C 250.675,113.226 247.841,112.059 244.5,112C 249.178,111.803 249.512,110.803 245.5,109C 247.809,108.244 249.809,108.744 251.5,110.5C 251.833,110.167 252.167,109.833 252.5,109.5C 251.167,107.833 249.833,106.167 248.5,104.5C 252.616,102.719 256.949,102.053 261.5,102.5C 261.461,103.756 261.961,104.756 263,105.5C 264.323,102.691 265.823,100.025 267.5,97.5C 269.433,98.6417 270.933,100.308 272,102.5C 271.667,100.167 271.333,97.8333 271,95.5C 274.732,99.0622 278.232,102.729 281.5,106.5 Z"/></g>
<g><path style="opacity:1" fill="#d1dcac" d="M 289.5,114.5 C 290.573,115.251 290.74,116.251 290,117.5C 288.488,118.257 287.154,119.257 286,120.5C 285.333,119.833 285.333,119.167 286,118.5C 287.376,117.295 288.542,115.962 289.5,114.5 Z"/></g>
<g><path style="opacity:1" fill="#798871" d="M 303.5,116.5 C 300.167,116.5 296.833,116.5 293.5,116.5C 296.833,113.833 300.167,113.833 303.5,116.5 Z"/></g>
<g><path style="opacity:1" fill="#c0dcc7" d="M 265.5,121.5 C 265.389,122.117 265.056,122.617 264.5,123C 262.19,123.497 259.857,123.663 257.5,123.5C 254.903,123.279 254.903,122.779 257.5,122C 260.146,121.503 262.813,121.336 265.5,121.5 Z"/></g>
<g><path style="opacity:1" fill="#4d7355" d="M 265.5,121.5 C 262.813,121.336 260.146,121.503 257.5,122C 254.903,122.779 254.903,123.279 257.5,123.5C 257.5,123.833 257.5,124.167 257.5,124.5C 255.04,124.301 252.707,123.635 250.5,122.5C 255.542,120.491 260.542,120.157 265.5,121.5 Z"/></g>
<g><path style="opacity:1" fill="#20191a" d="M 151.5,135.5 C 150.711,135.217 150.044,134.717 149.5,134C 137.445,132.153 125.445,129.986 113.5,127.5C 112.194,126.533 111.527,125.199 111.5,123.5C 117.727,125.145 124.061,126.145 130.5,126.5C 130.187,123.753 130.52,121.086 131.5,118.5C 132.487,121.768 132.82,125.102 132.5,128.5C 138.864,129.45 145.197,130.616 151.5,132C 153.931,133.092 153.931,134.259 151.5,135.5 Z"/></g>
<g><path style="opacity:1" fill="#0b0909" d="M 192.5,230.5 C 196.108,224.946 198.942,218.946 201,212.5C 203.457,193.722 195.29,183.722 176.5,182.5C 175.081,181.549 173.415,181.216 171.5,181.5C 171.5,195.833 171.5,210.167 171.5,224.5C 170.167,224.5 168.833,224.5 167.5,224.5C 167.5,193.5 167.5,162.5 167.5,131.5C 168.833,131.5 170.167,131.5 171.5,131.5C 171.333,146.504 171.5,161.504 172,176.5C 179.981,179.538 188.148,182.038 196.5,184C 206.967,199.028 207.134,214.194 197,229.5C 195.653,231.466 194.153,231.799 192.5,230.5 Z"/></g>
<g><path style="opacity:1" fill="#779d7c" d="M 251.5,131.5 C 255.472,133.822 259.472,136.155 263.5,138.5C 262.234,139.362 260.901,140.029 259.5,140.5C 258.036,139.84 256.369,139.507 254.5,139.5C 251.315,139.611 248.315,140.111 245.5,141C 248.048,138.558 251.048,136.892 254.5,136C 251.167,135.667 247.833,135.333 244.5,135C 246.713,133.384 249.047,132.217 251.5,131.5 Z"/></g>
<g><path style="opacity:1" fill="#7fab82" d="M 289.5,131.5 C 291.478,130.988 293.812,130.821 296.5,131C 298.911,132.726 299.578,134.893 298.5,137.5C 295.987,134.745 292.987,132.745 289.5,131.5 Z"/></g>
<g><path style="opacity:1" fill="#e72d2b" d="M 113.5,127.5 C 125.445,129.986 137.445,132.153 149.5,134C 150.044,134.717 150.711,135.217 151.5,135.5C 152.833,138.167 154.167,140.833 155.5,143.5C 155.209,144.649 154.376,145.316 153,145.5C 139.905,143.626 127.072,144.293 114.5,147.5C 114.823,141.31 114.49,135.31 113.5,129.5C 113.5,128.833 113.5,128.167 113.5,127.5 Z"/></g>
<g><path style="opacity:1" fill="#bacab7" d="M 315.5,136.5 C 316.573,137.251 316.74,138.251 316,139.5C 314.264,141.063 312.764,142.73 311.5,144.5C 308.088,141.027 304.088,140.027 299.5,141.5C 299.5,140.5 299.5,139.5 299.5,138.5C 302.483,138.898 305.483,139.232 308.5,139.5C 311.383,139.48 313.716,138.48 315.5,136.5 Z"/></g>
<g><path style="opacity:1" fill="#277f43" d="M 311.5,144.5 C 313.065,147.979 312.732,150.479 310.5,152C 311.893,153.301 312.393,154.801 312,156.5C 310.428,154.437 308.595,153.771 306.5,154.5C 308.124,155.869 308.624,157.536 308,159.5C 307.667,158.833 307.333,158.167 307,157.5C 305.542,158.747 304.042,158.747 302.5,157.5C 301.818,158.243 301.151,158.909 300.5,159.5C 299.51,153.69 299.177,147.69 299.5,141.5C 304.088,140.027 308.088,141.027 311.5,144.5 Z"/></g>
<g><path style="opacity:1" fill="#f02921" d="M 384.5,147.5 C 384.087,149.89 383.421,152.223 382.5,154.5C 369.191,154.028 355.857,153.695 342.5,153.5C 340.944,154.547 339.277,155.214 337.5,155.5C 336.223,156.317 335.89,154.317 336.5,149.5C 341.533,135.476 351.533,129.309 366.5,131C 375.249,133.586 381.249,139.086 384.5,147.5 Z"/></g>
<g><path style="opacity:1" fill="#c1d2b9" d="M 291.5,148.5 C 289.411,148.143 287.411,147.477 285.5,146.5C 288.008,145.412 290.008,146.078 291.5,148.5 Z"/></g>
<g><path style="opacity:1" fill="#cf5636" d="M 113.5,129.5 C 114.49,135.31 114.823,141.31 114.5,147.5C 127.072,144.293 139.905,143.626 153,145.5C 154.376,145.316 155.209,144.649 155.5,143.5C 156.537,144.93 157.204,146.597 157.5,148.5C 157.5,149.5 157.5,150.5 157.5,151.5C 155.654,151.778 154.32,151.111 153.5,149.5C 140.39,147.983 127.39,148.316 114.5,150.5C 114.5,149.833 114.167,149.5 113.5,149.5C 113.5,142.833 113.5,136.167 113.5,129.5 Z"/></g>
<g><path style="opacity:1" fill="#d5e2d3" d="M 299.5,141.5 C 299.177,147.69 299.51,153.69 300.5,159.5C 299.91,162.285 298.576,164.619 296.5,166.5C 295.522,166.023 294.689,165.357 294,164.5C 293.282,165.451 292.449,165.617 291.5,165C 292.066,164.005 292.733,163.172 293.5,162.5C 294.764,160.228 294.598,157.895 293,155.5C 290.357,154.024 288.19,152.024 286.5,149.5C 286.667,149.167 286.833,148.833 287,148.5C 289.071,150.912 291.404,152.912 294,154.5C 294.667,153.5 294.667,152.5 294,151.5C 292.955,150.627 292.122,149.627 291.5,148.5C 293.371,148.859 294.871,149.859 296,151.5C 296.667,150.5 296.667,149.5 296,148.5C 293.684,146.53 291.851,144.196 290.5,141.5C 288.844,139.978 287.677,140.311 287,142.5C 286.689,140.444 286.189,138.444 285.5,136.5C 286.002,135.479 286.668,135.312 287.5,136C 291.025,139.557 294.191,143.39 297,147.5C 296.685,140.013 292.852,135.346 285.5,133.5C 285.34,131.801 285.506,130.134 286,128.5C 286.309,129.766 286.809,130.933 287.5,132C 292.155,134.475 296.155,137.642 299.5,141.5 Z"/></g>
<g><path style="opacity:1" fill="#ae6d3c" d="M 157.5,151.5 C 157.209,152.649 156.376,153.316 155,153.5C 151.326,152.057 147.493,151.39 143.5,151.5C 133.9,153.026 124.233,153.692 114.5,153.5C 114.5,152.5 114.5,151.5 114.5,150.5C 127.39,148.316 140.39,147.983 153.5,149.5C 154.32,151.111 155.654,151.778 157.5,151.5 Z"/></g>
<g><path style="opacity:1" fill="#599c6b" d="M 257.5,141.5 C 257.08,143.094 256.414,144.594 255.5,146C 255.833,146.5 256.167,147 256.5,147.5C 257.451,146.674 258.451,146.508 259.5,147C 257.637,148.761 256.97,150.595 257.5,152.5C 256.301,155.352 254.634,156.185 252.5,155C 254.243,152.981 255.41,150.814 256,148.5C 254.649,150.019 253.149,151.352 251.5,152.5C 247.044,146.398 248.544,142.398 256,140.5C 256.765,140.57 257.265,140.903 257.5,141.5 Z"/></g>
<g><path style="opacity:1" fill="#9c7946" d="M 157.5,148.5 C 158.473,150.948 158.806,153.615 158.5,156.5C 145.575,155.685 132.575,155.185 119.5,155C 117.618,154.802 115.952,154.302 114.5,153.5C 124.233,153.692 133.9,153.026 143.5,151.5C 147.493,151.39 151.326,152.057 155,153.5C 156.376,153.316 157.209,152.649 157.5,151.5C 157.5,150.5 157.5,149.5 157.5,148.5 Z"/></g>
<g><path style="opacity:1" fill="#719453" d="M 113.5,149.5 C 114.167,149.5 114.5,149.833 114.5,150.5C 114.5,151.5 114.5,152.5 114.5,153.5C 115.952,154.302 117.618,154.802 119.5,155C 132.575,155.185 145.575,155.685 158.5,156.5C 158.737,157.791 158.404,158.791 157.5,159.5C 143.539,157.517 129.206,156.85 114.5,157.5C 114.817,161.702 114.483,165.702 113.5,169.5C 113.5,162.833 113.5,156.167 113.5,149.5 Z"/></g>
<g><path style="opacity:1" fill="#f44c25" d="M 384.5,147.5 C 386.033,149.634 386.7,152.134 386.5,155C 386.64,158.15 385.973,160.983 384.5,163.5C 370.171,162.802 355.671,162.802 341,163.5C 339.594,162.586 338.094,161.92 336.5,161.5C 335.167,157.5 335.167,153.5 336.5,149.5C 335.89,154.317 336.223,156.317 337.5,155.5C 339.277,155.214 340.944,154.547 342.5,153.5C 355.857,153.695 369.191,154.028 382.5,154.5C 383.421,152.223 384.087,149.89 384.5,147.5 Z"/></g>
<g><path style="opacity:1" fill="#139559" d="M 157.5,159.5 C 155.588,166.331 151.921,171.997 146.5,176.5C 134.746,175.059 123.079,173.059 111.5,170.5C 111.842,169.662 112.508,169.328 113.5,169.5C 114.483,165.702 114.817,161.702 114.5,157.5C 129.206,156.85 143.539,157.517 157.5,159.5 Z"/></g>
<g><path style="opacity:1" fill="#f76c24" d="M 336.5,161.5 C 338.094,161.92 339.594,162.586 341,163.5C 355.671,162.802 370.171,162.802 384.5,163.5C 384.245,166.016 383.411,168.35 382,170.5C 379.96,172.37 378.127,174.37 376.5,176.5C 375.833,176.5 375.167,176.5 374.5,176.5C 375.598,175.603 375.598,174.77 374.5,174C 372.667,173.833 370.833,173.667 369,173.5C 363.94,174.806 359.107,174.806 354.5,173.5C 351.551,175.769 348.718,175.769 346,173.5C 345.536,174.094 345.369,174.761 345.5,175.5C 340.479,172.122 337.479,167.455 336.5,161.5 Z"/></g>
<g><path style="opacity:1" fill="#0a0a0a" d="M 315.5,226.5 C 315.5,226.167 315.5,225.833 315.5,225.5C 316.5,225.167 317.167,224.5 317.5,223.5C 319.822,222.198 321.155,220.198 321.5,217.5C 323.84,210.999 322.173,205.666 316.5,201.5C 315.657,199.827 314.324,198.66 312.5,198C 308.973,197.192 305.64,197.359 302.5,198.5C 301.167,198.833 299.833,199.167 298.5,199.5C 299.749,197.864 301.416,196.697 303.5,196C 307.285,195.785 310.952,195.619 314.5,195.5C 314.023,194.522 313.357,193.689 312.5,193C 308.29,192.262 304.124,192.428 300,193.5C 298.131,192.631 297.631,191.465 298.5,190C 305.85,185.98 313.517,184.98 321.5,187C 322.667,188.167 323.833,189.333 325,190.5C 325.333,199.5 325.667,208.5 326,217.5C 327.808,219.396 329.975,219.896 332.5,219C 349.167,212.639 364.001,203.472 377,191.5C 375.96,186.866 374.794,182.199 373.5,177.5C 373.5,176.833 373.833,176.5 374.5,176.5C 375.167,176.5 375.833,176.5 376.5,176.5C 388.979,175.501 401.313,174.001 413.5,172C 401.299,191.524 384.299,205.19 362.5,213C 347.076,218.603 331.41,223.103 315.5,226.5 Z"/></g>
<g><path style="opacity:1" fill="#161617" d="M 244.5,234.5 C 241.167,234.5 237.833,234.5 234.5,234.5C 211.177,224.187 205.01,207.52 216,184.5C 228.671,170.98 243.171,168.814 259.5,178C 272.87,190.748 275.036,205.248 266,221.5C 260.371,228.557 253.205,232.89 244.5,234.5 Z"/></g>
<g><path style="opacity:1" fill="#fb8f28" d="M 374.5,176.5 C 373.833,176.5 373.5,176.833 373.5,177.5C 366.714,181.809 359.381,182.643 351.5,180C 349.253,178.723 347.253,177.223 345.5,175.5C 345.369,174.761 345.536,174.094 346,173.5C 348.718,175.769 351.551,175.769 354.5,173.5C 359.107,174.806 363.94,174.806 369,173.5C 370.833,173.667 372.667,173.833 374.5,174C 375.598,174.77 375.598,175.603 374.5,176.5 Z"/></g>
<g><path style="opacity:1" fill="#2f9bd3" d="M 267.5,198.5 C 266.5,198.5 265.5,198.5 264.5,198.5C 261.829,191.795 257.495,186.128 251.5,181.5C 239.333,176.998 229.5,179.998 222,190.5C 221.505,192.473 221.338,194.473 221.5,196.5C 220.833,196.5 220.5,196.833 220.5,197.5C 217.833,199.167 215.167,200.833 212.5,202.5C 214.174,185.406 223.841,176.072 241.5,174.5C 255.077,175.909 264.077,183.076 268.5,196C 268.472,197.07 268.139,197.903 267.5,198.5 Z"/></g>
<g><path style="opacity:1" fill="#170f0f" d="M 111.5,170.5 C 123.079,173.059 134.746,175.059 146.5,176.5C 147.842,177.793 149.509,178.626 151.5,179C 152.598,179.77 152.598,180.603 151.5,181.5C 138.815,178.926 126.148,176.259 113.5,173.5C 111.952,173.179 111.285,172.179 111.5,170.5 Z"/></g>
<g><path style="opacity:1" fill="#ec2b29" d="M 113.5,173.5 C 126.148,176.259 138.815,178.926 151.5,181.5C 152.809,184.793 154.142,188.126 155.5,191.5C 155.631,192.239 155.464,192.906 155,193.5C 142.386,192.202 129.72,192.202 117,193.5C 115.566,193.138 114.399,192.472 113.5,191.5C 113.5,185.5 113.5,179.5 113.5,173.5 Z"/></g>
<g><path style="opacity:1" fill="#6c6d6c" d="M 72.5,187.5 C 75.6248,186.521 78.9581,186.187 82.5,186.5C 82.8016,189.059 82.4682,191.393 81.5,193.5C 81.5,191.5 81.5,189.5 81.5,187.5C 78.5,187.5 75.5,187.5 72.5,187.5 Z"/></g>
<g><path style="opacity:1" fill="#201d1d" d="M 72.5,187.5 C 75.5,187.5 78.5,187.5 81.5,187.5C 81.5,189.5 81.5,191.5 81.5,193.5C 81.7076,195.92 81.3742,198.253 80.5,200.5C 90.2018,208.519 101.202,214.185 113.5,217.5C 113.833,217.5 114.167,217.5 114.5,217.5C 122.022,220.297 129.688,222.631 137.5,224.5C 106.547,225.268 78.5474,216.768 53.5,199C 49.9842,195.651 46.6508,192.151 43.5,188.5C 53.1437,187.502 62.8104,187.168 72.5,187.5 Z"/></g>
<g><path style="opacity:1" fill="#77aed7" d="M 264.5,198.5 C 263.223,199.898 261.557,200.564 259.5,200.5C 254.416,198.726 249.416,197.06 244.5,195.5C 242.834,193.172 240.501,192.172 237.5,192.5C 231.916,192.949 226.583,194.282 221.5,196.5C 221.338,194.473 221.505,192.473 222,190.5C 229.5,179.998 239.333,176.998 251.5,181.5C 257.495,186.128 261.829,191.795 264.5,198.5 Z"/></g>
<g><path style="opacity:1" fill="#ca5933" d="M 113.5,191.5 C 114.399,192.472 115.566,193.138 117,193.5C 129.72,192.202 142.386,192.202 155,193.5C 155.464,192.906 155.631,192.239 155.5,191.5C 156.338,191.842 156.672,192.508 156.5,193.5C 156.5,194.5 156.5,195.5 156.5,196.5C 142.657,194.214 128.657,193.881 114.5,195.5C 114.167,195.5 113.833,195.5 113.5,195.5C 113.5,194.167 113.5,192.833 113.5,191.5 Z"/></g>
<g><path style="opacity:1" fill="#77787b" d="M 244.5,195.5 C 239.552,194.441 234.552,194.274 229.5,195C 228.584,195.278 227.918,195.778 227.5,196.5C 225.784,196.629 224.117,196.962 222.5,197.5C 221.833,197.5 221.167,197.5 220.5,197.5C 220.5,196.833 220.833,196.5 221.5,196.5C 226.583,194.282 231.916,192.949 237.5,192.5C 240.501,192.172 242.834,193.172 244.5,195.5 Z"/></g>
<g><path style="opacity:1" fill="#fbcd2e" d="M 176.5,182.5 C 195.29,183.722 203.457,193.722 201,212.5C 198.942,218.946 196.108,224.946 192.5,230.5C 185.845,228.502 179.178,226.502 172.5,224.5C 172.5,210.5 172.5,196.5 172.5,182.5C 173.833,182.5 175.167,182.5 176.5,182.5 Z"/></g>
<g><path style="opacity:1" fill="#a87239" d="M 156.5,193.5 C 157.404,194.209 157.737,195.209 157.5,196.5C 157.5,198.167 157.5,199.833 157.5,201.5C 143.179,200.483 128.846,200.483 114.5,201.5C 114.5,199.5 114.5,197.5 114.5,195.5C 128.657,193.881 142.657,194.214 156.5,196.5C 156.5,195.5 156.5,194.5 156.5,193.5 Z"/></g>
<g><path style="opacity:1" fill="#948047" d="M 113.5,195.5 C 113.833,195.5 114.167,195.5 114.5,195.5C 114.5,197.5 114.5,199.5 114.5,201.5C 128.846,200.483 143.179,200.483 157.5,201.5C 157.5,199.833 157.5,198.167 157.5,196.5C 158.833,200.167 158.833,203.833 157.5,207.5C 157.5,207.167 157.5,206.833 157.5,206.5C 157.209,205.351 156.376,204.684 155,204.5C 150.467,203.931 145.967,203.264 141.5,202.5C 132.637,203.822 123.803,203.822 115,202.5C 114.722,203.416 114.222,204.082 113.5,204.5C 113.5,201.5 113.5,198.5 113.5,195.5 Z"/></g>
<g><path style="opacity:1" fill="#5d462d" d="M 220.5,197.5 C 221.167,197.5 221.833,197.5 222.5,197.5C 223.007,198.859 224.007,199.859 225.5,200.5C 222.215,201.324 218.882,201.824 215.5,202C 214.619,202.708 213.953,203.542 213.5,204.5C 213.167,204.5 212.833,204.5 212.5,204.5C 212.5,203.833 212.5,203.167 212.5,202.5C 215.167,200.833 217.833,199.167 220.5,197.5 Z"/></g>
<g><path style="opacity:1" fill="#1f2c24" d="M 298.5,199.5 C 297.524,200.815 296.524,202.148 295.5,203.5C 297.748,204.324 297.914,205.324 296,206.5C 295.329,205.748 294.496,205.414 293.5,205.5C 293.772,202.268 295.438,200.268 298.5,199.5 Z"/></g>
<g><path style="opacity:1" fill="#7b957d" d="M 2.5,188.5 C 2.63818,193.414 1.97151,198.081 0.5,202.5C 0.361822,197.586 1.02849,192.919 2.5,188.5 Z"/></g>
<g><path style="opacity:1" fill="#2285ca" d="M 267.5,200.5 C 268.725,201.152 269.392,202.319 269.5,204C 269.392,205.681 268.725,206.848 267.5,207.5C 265.833,206.5 264.5,205.167 263.5,203.5C 264.795,202.512 266.128,201.512 267.5,200.5 Z"/></g>
<g><path style="opacity:1" fill="#a07e27" d="M 176.5,182.5 C 175.167,182.5 173.833,182.5 172.5,182.5C 172.5,196.5 172.5,210.5 172.5,224.5C 172.167,224.5 171.833,224.5 171.5,224.5C 171.5,210.167 171.5,195.833 171.5,181.5C 173.415,181.216 175.081,181.549 176.5,182.5 Z"/></g>
<g><path style="opacity:1" fill="#8aa375" d="M 449.5,195.5 C 449.5,199.833 449.5,204.167 449.5,208.5C 448.679,211.641 448.179,214.975 448,218.5C 447.501,213.845 447.334,209.179 447.5,204.5C 448.167,201.5 448.833,198.5 449.5,195.5 Z"/></g>
<g><path style="opacity:1" fill="#b18970" d="M 263.5,203.5 C 264.5,205.167 265.833,206.5 267.5,207.5C 268.625,208.652 268.625,209.652 267.5,210.5C 266.391,210.443 265.391,210.11 264.5,209.5C 263.102,207.101 261.102,205.434 258.5,204.5C 253.359,207.073 248.026,209.073 242.5,210.5C 240.451,210.294 240.117,209.461 241.5,208C 244.226,207.818 246.893,207.318 249.5,206.5C 249.023,205.522 248.357,204.689 247.5,204C 252.902,202.966 258.236,202.8 263.5,203.5 Z"/></g>
<g><path style="opacity:1" fill="#7a8a46" d="M 157.5,206.5 C 143.167,206.5 128.833,206.5 114.5,206.5C 114.5,210.167 114.5,213.833 114.5,217.5C 114.167,217.5 113.833,217.5 113.5,217.5C 113.5,213.167 113.5,208.833 113.5,204.5C 114.222,204.082 114.722,203.416 115,202.5C 123.803,203.822 132.637,203.822 141.5,202.5C 145.967,203.264 150.467,203.931 155,204.5C 156.376,204.684 157.209,205.351 157.5,206.5 Z"/></g>
<g><path style="opacity:1" fill="#b3a498" d="M 244.5,195.5 C 249.416,197.06 254.416,198.726 259.5,200.5C 261.557,200.564 263.223,199.898 264.5,198.5C 265.5,198.5 266.5,198.5 267.5,198.5C 267.5,199.167 267.5,199.833 267.5,200.5C 266.128,201.512 264.795,202.512 263.5,203.5C 258.236,202.8 252.902,202.966 247.5,204C 248.357,204.689 249.023,205.522 249.5,206.5C 246.893,207.318 244.226,207.818 241.5,208C 240.117,209.461 240.451,210.294 242.5,210.5C 236.347,211.653 230.014,211.82 223.5,211C 222.473,210.487 221.473,209.987 220.5,209.5C 217.63,208.567 215.296,206.9 213.5,204.5C 213.953,203.542 214.619,202.708 215.5,202C 218.882,201.824 222.215,201.324 225.5,200.5C 224.007,199.859 223.007,198.859 222.5,197.5C 224.117,196.962 225.784,196.629 227.5,196.5C 227.918,195.778 228.584,195.278 229.5,195C 234.552,194.274 239.552,194.441 244.5,195.5 Z"/></g>
<g><path style="opacity:1" fill="#d8dde0" d="M 227.5,196.5 C 232.179,196.334 236.845,196.501 241.5,197C 244.447,197.112 245.78,198.612 245.5,201.5C 239.794,201.829 234.128,201.495 228.5,200.5C 227.754,199.264 227.421,197.93 227.5,196.5 Z"/></g>
<g><path style="opacity:1" fill="#0e2c23" d="M 313.5,200.5 C 316.34,205.848 317.84,211.515 318,217.5C 317.768,216.263 317.268,215.263 316.5,214.5C 314.874,210.455 313.541,206.288 312.5,202C 312.57,201.235 312.903,200.735 313.5,200.5 Z"/></g>
<g><path style="opacity:1" fill="#1d4f24" d="M 316.5,201.5 C 322.173,205.666 323.84,210.999 321.5,217.5C 320.151,212.114 318.484,206.781 316.5,201.5 Z"/></g>
<g><path style="opacity:1" fill="#159559" d="M 157.5,206.5 C 157.5,206.833 157.5,207.167 157.5,207.5C 155.258,213.916 151.592,219.416 146.5,224C 143.518,224.498 140.518,224.665 137.5,224.5C 129.688,222.631 122.022,220.297 114.5,217.5C 114.5,213.833 114.5,210.167 114.5,206.5C 128.833,206.5 143.167,206.5 157.5,206.5 Z"/></g>
<g><path style="opacity:1" fill="#208a3c" d="M 302.5,198.5 C 305.64,197.359 308.973,197.192 312.5,198C 314.324,198.66 315.657,199.827 316.5,201.5C 318.484,206.781 320.151,212.114 321.5,217.5C 321.155,220.198 319.822,222.198 317.5,223.5C 317.296,220.482 316.963,217.482 316.5,214.5C 317.268,215.263 317.768,216.263 318,217.5C 317.84,211.515 316.34,205.848 313.5,200.5C 310.42,199.174 306.754,198.507 302.5,198.5 Z"/></g>
<g><path style="opacity:1" fill="#1a3623" d="M 293.5,205.5 C 294.274,212.926 297.274,219.259 302.5,224.5C 302.333,224.833 302.167,225.167 302,225.5C 298.545,222.721 295.879,219.388 294,215.5C 293.333,216.5 293.333,217.5 294,218.5C 295.723,220.717 297.223,223.05 298.5,225.5C 295.098,223.569 292.931,220.569 292,216.5C 291.333,213.5 291.333,210.5 292,207.5C 292.278,206.584 292.778,205.918 293.5,205.5 Z"/></g>
<g><path style="opacity:1" fill="#7eb0d8" d="M 264.5,209.5 C 263.5,209.5 262.5,209.5 261.5,209.5C 262.3,214.126 260.966,217.96 257.5,221C 254.929,221.901 252.596,223.234 250.5,225C 241.216,226.644 232.549,225.144 224.5,220.5C 222.308,217.121 220.974,213.455 220.5,209.5C 221.473,209.987 222.473,210.487 223.5,211C 230.014,211.82 236.347,211.653 242.5,210.5C 248.026,209.073 253.359,207.073 258.5,204.5C 261.102,205.434 263.102,207.101 264.5,209.5 Z"/></g>
<g><path style="opacity:1" fill="#269c39" d="M 302.5,198.5 C 306.754,198.507 310.42,199.174 313.5,200.5C 312.903,200.735 312.57,201.235 312.5,202C 313.541,206.288 314.874,210.455 316.5,214.5C 316.963,217.482 317.296,220.482 317.5,223.5C 317.167,224.5 316.5,225.167 315.5,225.5C 314.624,225.631 313.957,225.298 313.5,224.5C 312.933,222.018 312.266,219.684 311.5,217.5C 311.032,213.556 309.699,209.889 307.5,206.5C 309.023,204.414 308.69,202.748 306.5,201.5C 306.167,202.167 305.833,202.833 305.5,203.5C 307.253,208.955 308.92,214.289 310.5,219.5C 311.475,222.067 312.142,224.733 312.5,227.5C 308.833,227.5 305.167,227.5 301.5,227.5C 299.973,227.573 298.973,226.906 298.5,225.5C 297.223,223.05 295.723,220.717 294,218.5C 293.333,217.5 293.333,216.5 294,215.5C 295.879,219.388 298.545,222.721 302,225.5C 302.167,225.167 302.333,224.833 302.5,224.5C 297.274,219.259 294.274,212.926 293.5,205.5C 294.496,205.414 295.329,205.748 296,206.5C 297.914,205.324 297.748,204.324 295.5,203.5C 296.524,202.148 297.524,200.815 298.5,199.5C 299.833,199.167 301.167,198.833 302.5,198.5 Z"/></g>
<g><path style="opacity:1" fill="#0d362c" d="M 300.5,203.5 C 301.376,203.369 302.043,203.702 302.5,204.5C 302.013,205.446 301.68,206.446 301.5,207.5C 303.077,213.635 304.911,219.635 307,225.5C 305,222.167 303,218.833 301,215.5C 300.501,211.514 300.334,207.514 300.5,203.5 Z"/></g>
<g><path style="opacity:1" fill="#10392e" d="M 311.5,217.5 C 311.672,218.492 311.338,219.158 310.5,219.5C 308.92,214.289 307.253,208.955 305.5,203.5C 305.833,202.833 306.167,202.167 306.5,201.5C 308.69,202.748 309.023,204.414 307.5,206.5C 309.699,209.889 311.032,213.556 311.5,217.5 Z"/></g>
<g><path style="opacity:1" fill="#040e04" d="M 449.5,219.5 C 449.5,223.5 449.5,227.5 449.5,231.5C 448.504,231.586 447.671,231.252 447,230.5C 446.333,227.167 446.333,223.833 447,220.5C 447.671,219.748 448.504,219.414 449.5,219.5 Z"/></g>
<g><path style="opacity:1" fill="#236635" d="M 311.5,217.5 C 312.266,219.684 312.933,222.018 313.5,224.5C 313.957,225.298 314.624,225.631 315.5,225.5C 315.5,225.833 315.5,226.167 315.5,226.5C 315.158,227.338 314.492,227.672 313.5,227.5C 313.167,227.5 312.833,227.5 312.5,227.5C 312.142,224.733 311.475,222.067 310.5,219.5C 311.338,219.158 311.672,218.492 311.5,217.5 Z"/></g>
<g><path style="opacity:1" fill="#2e98d5" d="M 212.5,204.5 C 212.833,204.5 213.167,204.5 213.5,204.5C 215.296,206.9 217.63,208.567 220.5,209.5C 220.974,213.455 222.308,217.121 224.5,220.5C 232.549,225.144 241.216,226.644 250.5,225C 252.596,223.234 254.929,221.901 257.5,221C 260.966,217.96 262.3,214.126 261.5,209.5C 262.5,209.5 263.5,209.5 264.5,209.5C 265.391,210.11 266.391,210.443 267.5,210.5C 265.235,220.937 258.902,227.771 248.5,231C 227.642,233.463 215.642,224.629 212.5,204.5 Z"/></g>
<g><path style="opacity:1" fill="#2c3223" d="M 301.5,227.5 C 305.167,227.5 308.833,227.5 312.5,227.5C 312.833,227.5 313.167,227.5 313.5,227.5C 309.47,230.079 305.47,230.079 301.5,227.5 Z"/></g>
<g><path style="opacity:1" fill="#289fed" d="M 234.5,234.5 C 237.833,234.5 241.167,234.5 244.5,234.5C 250.131,236.644 255.798,238.811 261.5,241C 271.188,241.528 280.855,241.195 290.5,240C 294.953,238.274 299.286,236.274 303.5,234C 309.097,232.544 314.763,232.211 320.5,233C 328.169,236.112 336.002,238.612 344,240.5C 348.172,240.041 352.338,239.541 356.5,239C 362.986,236.668 369.486,234.501 376,232.5C 383.584,233.938 391.084,235.771 398.5,238C 405.826,238.5 413.159,238.666 420.5,238.5C 420.5,239.833 420.5,241.167 420.5,242.5C 414.516,243.332 408.516,243.499 402.5,243C 393.614,241.07 384.78,238.903 376,236.5C 369.334,239.39 362.5,241.89 355.5,244C 349.5,244.667 343.5,244.667 337.5,244C 329.555,240.684 321.388,238.184 313,236.5C 306.724,237.385 300.89,239.551 295.5,243C 284.254,245.196 272.921,245.862 261.5,245C 254.29,242.318 246.956,240.151 239.5,238.5C 237.833,238.667 236.167,238.833 234.5,239C 220.94,246.407 206.606,248.407 191.5,245C 183.587,241.875 175.587,239.041 167.5,236.5C 160.625,239.292 153.625,241.792 146.5,244C 134.201,246.565 122.201,245.565 110.5,241C 103.834,237.416 97.0009,234.25 90,231.5C 79.5358,235.876 68.7025,239.043 57.5,241C 55.1667,241.667 52.8333,241.667 50.5,241C 49.6634,239.989 49.33,238.822 49.5,237.5C 63.699,235.867 77.3657,232.2 90.5,226.5C 96.4403,228.804 102.107,231.637 107.5,235C 119.288,240.243 131.621,241.909 144.5,240C 152.09,237.614 159.59,235.114 167,232.5C 177.043,234.934 186.876,238.101 196.5,242C 204.646,242.991 212.646,242.324 220.5,240C 225.076,237.876 229.743,236.043 234.5,234.5 Z"/></g>
<g><path style="opacity:1" fill="#809c6d" d="M 449.5,237.5 C 449.5,241.5 449.5,245.5 449.5,249.5C 448.833,247.833 448.167,246.167 447.5,244.5C 446.99,241.612 447.656,239.279 449.5,237.5 Z"/></g>
<g><path style="opacity:1" fill="#2623a6" d="M 91.5,247.5 C 103.297,255.531 116.297,258.364 130.5,256C 139.948,254.61 149.281,252.777 158.5,250.5C 162.861,251.173 167.194,252.007 171.5,253C 188.844,261.621 206.178,261.621 223.5,253C 228.167,252.333 232.833,252.333 237.5,253C 247.525,256.733 257.858,258.9 268.5,259.5C 280.223,258.823 291.557,256.323 302.5,252C 310.498,250.709 318.164,251.709 325.5,255C 329.624,255.856 333.79,256.356 338,256.5C 347.726,255.526 357.226,253.526 366.5,250.5C 366.759,253.48 365.426,255.313 362.5,256C 352.076,259.419 341.409,260.753 330.5,260C 324.104,257.942 317.604,256.442 311,255.5C 307.112,255.594 303.279,256.094 299.5,257C 284.644,263.075 269.31,264.741 253.5,262C 244.455,258.402 235.122,256.735 225.5,257C 213.464,262.873 200.798,264.873 187.5,263C 177.993,259.578 168.327,256.744 158.5,254.5C 149.839,256.332 141.172,258.165 132.5,260C 116.6,263.21 102.267,260.043 89.5,250.5C 90.1925,249.482 90.8592,248.482 91.5,247.5 Z"/></g>
<g><path style="opacity:1" fill="#2b5b3b" d="M 441.5,179.5 C 443.194,180.527 444.527,181.861 445.5,183.5C 447.159,190.38 447.825,197.38 447.5,204.5C 447.334,209.179 447.501,213.845 448,218.5C 448.179,214.975 448.679,211.641 449.5,208.5C 449.5,212.167 449.5,215.833 449.5,219.5C 448.504,219.414 447.671,219.748 447,220.5C 446.333,223.833 446.333,227.167 447,230.5C 447.671,231.252 448.504,231.586 449.5,231.5C 449.5,233.5 449.5,235.5 449.5,237.5C 447.656,239.279 446.99,241.612 447.5,244.5C 439.426,322.524 401.759,381.358 334.5,421C 325.489,426.008 316.155,430.175 306.5,433.5C 309.896,431.405 313.563,429.572 317.5,428C 317.833,427.667 318.167,427.333 318.5,427C 317.207,426.51 315.873,426.343 314.5,426.5C 347.7,411.126 375.866,389.126 399,360.5C 438.786,306.346 452.953,246.013 441.5,179.5 Z"/></g>
<g><path style="opacity:1" fill="#2daaf5" d="M 92.5,260.5 C 96.0028,261.649 97.6695,264.149 97.5,268C 97.907,271.759 96.2403,273.259 92.5,272.5C 92.5,268.5 92.5,264.5 92.5,260.5 Z"/></g>
<g><path style="opacity:1" fill="#3856cd" d="M 84.5,266.5 C 87.6259,267.806 88.7925,270.14 88,273.5C 87,274.833 86,274.833 85,273.5C 84.5034,271.19 84.3367,268.857 84.5,266.5 Z"/></g>
<g><path style="opacity:1" fill="#ff2e23" d="M 106.5,267.5 C 107.497,267.47 108.164,267.97 108.5,269C 108.522,273.148 106.522,274.982 102.5,274.5C 102.961,271.697 104.295,269.363 106.5,267.5 Z"/></g>
<g><path style="opacity:1" fill="#010101" d="M 449.5,263.5 C 449.5,325.5 449.5,387.5 449.5,449.5C 386.167,449.5 322.833,449.5 259.5,449.5C 338.808,433.379 396.641,389.046 433,316.5C 439.031,300.178 443.864,283.511 447.5,266.5C 447.64,264.97 448.307,263.97 449.5,263.5 Z"/></g>
<g><path style="opacity:1" fill="#fe3a74" d="M 71.5,268.5 C 77.3889,269.548 80.5556,272.881 81,278.5C 80.3333,279.167 79.6667,279.833 79,280.5C 75.2087,277.239 72.7087,273.239 71.5,268.5 Z"/></g>
<g><path style="opacity:1" fill="#010101" d="M -0.5,273.5 C 0.833333,273.5 2.16667,273.5 3.5,273.5C 3.33669,275.857 3.50335,278.19 4,280.5C 8.72416,295.402 14.0575,310.069 20,324.5C 21.0391,325.71 22.2058,326.71 23.5,327.5C 23.3398,329.199 23.5065,330.866 24,332.5C 37.8193,356.324 54.6526,377.824 74.5,397C 83.1426,403.636 91.8093,410.302 100.5,417C 106.933,419.406 112.933,422.739 118.5,427C 141.754,436.923 165.42,444.423 189.5,449.5C 126.167,449.5 62.8333,449.5 -0.5,449.5C -0.5,390.833 -0.5,332.167 -0.5,273.5 Z"/></g>
<g><path style="opacity:1" fill="#22996e" d="M 117.5,270.5 C 118.5,270.5 119.5,270.5 120.5,270.5C 120.049,276.092 117.216,279.758 112,281.5C 109.058,281.563 108.058,280.23 109,277.5C 111.628,274.79 114.461,272.456 117.5,270.5 Z"/></g>
<g><path style="opacity:1" fill="#f6c07f" d="M 67.5,277.5 C 69.6365,278.403 71.6365,279.569 73.5,281C 70.7359,281.119 68.7359,279.952 67.5,277.5 Z"/></g>
<g><path style="opacity:1" fill="#30269a" d="M 180.5,295.5 C 179.833,293.167 179.167,290.833 178.5,288.5C 177.741,282.768 174.408,279.768 168.5,279.5C 164.695,279.801 162.862,281.801 163,285.5C 166.28,289.129 169.946,289.462 174,286.5C 174.667,287.167 174.667,287.833 174,288.5C 169.304,291.475 164.97,291.142 161,287.5C 161.418,279.759 165.585,276.259 173.5,277C 180.461,281.378 182.794,287.545 180.5,295.5 Z"/></g>
<g><path style="opacity:1" fill="#2d22a0" d="M 276.5,279.5 C 277.659,280.74 278.659,282.074 279.5,283.5C 280.039,285.505 280.705,287.505 281.5,289.5C 282.417,288.873 283.417,288.539 284.5,288.5C 285.167,288.5 285.833,288.5 286.5,288.5C 294.149,288.314 297.315,291.981 296,299.5C 294.418,305.633 290.418,308.633 284,308.5C 279.24,307.132 274.407,306.632 269.5,307C 270.517,308.049 270.684,309.216 270,310.5C 268.642,306.736 266.142,305.569 262.5,307C 263.693,305.905 265.027,305.072 266.5,304.5C 267.791,304.737 268.791,304.404 269.5,303.5C 273.115,301.979 275.615,299.313 277,295.5C 278.195,290.4 277.362,285.733 274.5,281.5C 272.629,280.233 270.796,280.233 269,281.5C 267.878,283.407 267.045,285.407 266.5,287.5C 265.833,287.5 265.5,287.167 265.5,286.5C 266.11,281.957 268.61,278.957 273,277.5C 274.459,277.808 275.626,278.475 276.5,279.5 Z"/></g>
<g><path style="opacity:1" fill="#f5f4f9" d="M 281.5,278.5 C 284.453,278.15 286.787,279.15 288.5,281.5C 288.039,284.303 286.705,286.637 284.5,288.5C 283.417,288.539 282.417,288.873 281.5,289.5C 280.705,287.505 280.039,285.505 279.5,283.5C 279.392,281.486 280.058,279.82 281.5,278.5 Z"/></g>
<g><path style="opacity:1" fill="#2b24ae" d="M 290.5,283.5 C 289.833,282.833 289.167,282.167 288.5,281.5C 286.787,279.15 284.453,278.15 281.5,278.5C 281.5,278.167 281.5,277.833 281.5,277.5C 284.618,274.692 287.285,275.192 289.5,279C 291.167,279.333 292.833,279.667 294.5,280C 293.269,281.405 291.936,282.571 290.5,283.5 Z"/></g>
<g><path style="opacity:1" fill="#5c5ea9" d="M 281.5,277.5 C 281.5,277.833 281.5,278.167 281.5,278.5C 280.058,279.82 279.392,281.486 279.5,283.5C 278.659,282.074 277.659,280.74 276.5,279.5C 278.514,279.608 280.18,278.942 281.5,277.5 Z"/></g>
<g><path style="opacity:1" fill="#f5f4fa" d="M 269.5,303.5 C 268.25,303.423 267.417,302.756 267,301.5C 266.501,296.845 266.334,292.179 266.5,287.5C 267.045,285.407 267.878,283.407 269,281.5C 270.796,280.233 272.629,280.233 274.5,281.5C 277.362,285.733 278.195,290.4 277,295.5C 275.615,299.313 273.115,301.979 269.5,303.5 Z"/></g>
<g><path style="opacity:1" fill="#575aad" d="M 338.5,293.5 C 338.167,292.833 337.833,292.167 337.5,291.5C 339.513,290.525 340.846,288.858 341.5,286.5C 341,286.167 340.5,285.833 340,285.5C 338.989,286.056 338.156,286.722 337.5,287.5C 337.167,287.5 336.833,287.5 336.5,287.5C 337.134,284.001 338.967,283.001 342,284.5C 342.498,288.168 341.331,291.168 338.5,293.5 Z"/></g>
<g><path style="opacity:1" fill="#e3e2f1" d="M 337.5,291.5 C 337.5,290.167 337.5,288.833 337.5,287.5C 338.156,286.722 338.989,286.056 340,285.5C 340.5,285.833 341,286.167 341.5,286.5C 340.846,288.858 339.513,290.525 337.5,291.5 Z"/></g>
<g><path style="opacity:1" fill="#5e5aac" d="M 196.5,292.5 C 195.833,292.5 195.5,292.167 195.5,291.5C 194.833,290.167 194.167,288.833 193.5,287.5C 194.134,284.001 195.967,283.001 199,284.5C 199.977,287.817 199.144,290.484 196.5,292.5 Z"/></g>
<g><path style="opacity:1" fill="#fcfcfc" d="M 195.5,291.5 C 195.201,289.396 195.534,287.396 196.5,285.5C 197.949,287.912 197.616,289.912 195.5,291.5 Z"/></g>
<g><path style="opacity:1" fill="#6e678c" d="M 288.5,281.5 C 289.167,282.167 289.833,282.833 290.5,283.5C 289.167,285.167 287.833,286.833 286.5,288.5C 285.833,288.5 285.167,288.5 284.5,288.5C 286.705,286.637 288.039,284.303 288.5,281.5 Z"/></g>
<g><path style="opacity:1" fill="#ff9e2a" d="M 113.5,286.5 C 123.763,285.81 124.097,287.143 114.5,290.5C 112.358,289.563 112.024,288.23 113.5,286.5 Z"/></g>
<g><path style="opacity:1" fill="#ff8d33" d="M 66.5,284.5 C 71.7397,284.258 74.573,286.592 75,291.5C 70.2083,292.805 65.7083,291.972 61.5,289C 60.1667,288 60.1667,287 61.5,286C 63.3817,285.802 65.0484,285.302 66.5,284.5 Z"/></g>
<g><path style="opacity:1" fill="#f7f7fc" d="M 280.5,291.5 C 285.849,290.461 290.349,291.795 294,295.5C 295.027,299.18 294.194,302.347 291.5,305C 285.415,305.625 279.415,305.125 273.5,303.5C 276.866,300.101 279.199,296.101 280.5,291.5 Z"/></g>
<g><path style="opacity:1" fill="#228754" d="M 68.5,296.5 C 70.604,296.201 72.604,296.534 74.5,297.5C 72.2351,298.647 69.9018,298.814 67.5,298C 68.056,297.617 68.3893,297.117 68.5,296.5 Z"/></g>
<g><path style="opacity:1" fill="#403c82" d="M 178.5,288.5 C 179.167,290.833 179.833,293.167 180.5,295.5C 179.32,300.537 176.653,304.537 172.5,307.5C 172.158,306.662 171.492,306.328 170.5,306.5C 177.419,302.646 180.086,296.646 178.5,288.5 Z"/></g>
<g><path style="opacity:1" fill="#4640ac" d="M 255.5,285.5 C 257.722,285.559 258.722,286.725 258.5,289C 258.192,291.953 256.858,294.286 254.5,296C 255.022,296.95 255.689,297.784 256.5,298.5C 254.619,306.321 253.286,314.321 252.5,322.5C 251.804,314.473 251.138,306.473 250.5,298.5C 250.628,293.496 252.294,289.163 255.5,285.5 Z"/></g>
<g><path style="opacity:1" fill="#e5e4f3" d="M 255.5,287.5 C 256.376,287.369 257.043,287.702 257.5,288.5C 256.752,290.332 255.752,291.999 254.5,293.5C 253.23,291.243 253.564,289.243 255.5,287.5 Z"/></g>
<g><path style="opacity:1" fill="#3b2ec3" d="M 127.5,298.5 C 129.346,298.222 130.68,298.889 131.5,300.5C 130.68,302.111 129.346,302.778 127.5,302.5C 127.5,301.167 127.5,299.833 127.5,298.5 Z"/></g>
<g><path style="opacity:1" fill="#3122c1" d="M 136.5,299.5 C 137.568,298.566 138.901,298.232 140.5,298.5C 140.306,303.403 138.973,303.736 136.5,299.5 Z"/></g>
<g><path style="opacity:1" fill="#191497" d="M 311.5,299.5 C 311.5,302.167 311.5,304.833 311.5,307.5C 311.44,308.043 311.107,308.376 310.5,308.5C 309.167,305.167 309.167,301.833 310.5,298.5C 311.107,298.624 311.44,298.957 311.5,299.5 Z"/></g>
<g><path style="opacity:1" fill="#235e2b" d="M 9.5,276.5 C 12.4301,286.957 15.7634,297.29 19.5,307.5C 18.4848,310.949 19.1515,314.116 21.5,317C 20.944,317.383 20.6107,317.883 20.5,318.5C 13.7323,304.867 8.73235,290.534 5.5,275.5C 5.36899,274.761 5.53566,274.094 6,273.5C 6.66667,274.833 7.33333,274.833 8,273.5C 8.23209,274.737 8.73209,275.737 9.5,276.5 Z"/></g>
<g><path style="opacity:1" fill="#2d2592" d="M 193.5,287.5 C 194.167,288.833 194.833,290.167 195.5,291.5C 195.5,292.167 195.833,292.5 196.5,292.5C 194.268,297.129 193.935,301.963 195.5,307C 194.975,307.692 194.308,308.192 193.5,308.5C 192.663,301.522 192.663,294.522 193.5,287.5 Z"/></g>
<g><path style="opacity:1" fill="#2a20a7" d="M 218.5,307.5 C 217.833,305.833 217.167,304.167 216.5,302.5C 216.5,301.167 216.5,299.833 216.5,298.5C 217.5,298.5 218.5,298.5 219.5,298.5C 219.81,301.713 219.477,304.713 218.5,307.5 Z"/></g>
<g><path style="opacity:1" fill="#706db0" d="M 265.5,286.5 C 265.5,287.167 265.833,287.5 266.5,287.5C 266.334,292.179 266.501,296.845 267,301.5C 267.417,302.756 268.25,303.423 269.5,303.5C 268.791,304.404 267.791,304.737 266.5,304.5C 264.494,298.473 264.161,292.473 265.5,286.5 Z"/></g>
<g><path style="opacity:1" fill="#2d25a1" d="M 336.5,287.5 C 336.833,287.5 337.167,287.5 337.5,287.5C 337.5,288.833 337.5,290.167 337.5,291.5C 337.833,292.167 338.167,292.833 338.5,293.5C 337.28,298.455 337.28,303.455 338.5,308.5C 337.5,308.5 336.5,308.5 335.5,308.5C 335.716,304.941 335.382,301.441 334.5,298C 335.128,294.453 335.795,290.953 336.5,287.5 Z"/></g>
<g><path style="opacity:1" fill="#1810a5" d="M 149.5,298.5 C 150.777,299.694 151.444,301.36 151.5,303.5C 151.167,305.167 150.833,306.833 150.5,308.5C 149.199,305.11 148.866,301.776 149.5,298.5 Z"/></g>
<g><path style="opacity:1" fill="#2620a7" d="M 170.5,306.5 C 171.492,306.328 172.158,306.662 172.5,307.5C 169.592,308.569 166.592,308.736 163.5,308C 160.355,305.932 159.855,303.432 162,300.5C 163.075,305.084 165.908,307.084 170.5,306.5 Z"/></g>
<g><path style="opacity:1" fill="#27219d" d="M 242.5,298.5 C 244.167,298.5 245.833,298.5 247.5,298.5C 247.664,301.187 247.497,303.854 247,306.5C 240.322,310.17 237.989,308.17 240,300.5C 240.995,299.934 241.828,299.267 242.5,298.5 Z"/></g>
<g><path style="opacity:1" fill="#edecf9" d="M 243.5,299.5 C 244.993,300.312 245.66,301.645 245.5,303.5C 244.167,308.833 242.833,308.833 241.5,303.5C 241.803,301.886 242.47,300.552 243.5,299.5 Z"/></g>
<g><path style="opacity:1" fill="#3d2ca3" d="M 382.5,289.5 C 383.5,289.5 384.5,289.5 385.5,289.5C 385.138,314.741 384.138,314.741 382.5,289.5 Z"/></g>
<g><path style="opacity:1" fill="#239a97" d="M 69.5,302.5 C 71.8568,302.337 74.1902,302.503 76.5,303C 77.7472,304.494 77.7472,305.994 76.5,307.5C 71.9191,309.488 67.2524,310.155 62.5,309.5C 64.5482,306.785 66.8816,304.452 69.5,302.5 Z"/></g>
<g><path style="opacity:1" fill="#3b26b4" d="M 113.5,296.5 C 116.119,296.232 118.619,296.565 121,297.5C 121.825,301.211 121.659,304.878 120.5,308.5C 118.777,305.06 118.11,301.394 118.5,297.5C 117.5,297.5 116.5,297.5 115.5,297.5C 115.552,301.198 115.886,304.865 116.5,308.5C 115.178,308.67 114.011,308.337 113,307.5C 112.245,303.745 112.411,300.078 113.5,296.5 Z"/></g>
<g><path style="opacity:1" fill="#433aab" d="M 143.5,298.5 C 144.5,298.5 145.5,298.5 146.5,298.5C 146.5,301.833 146.5,305.167 146.5,308.5C 145.5,308.5 144.5,308.5 143.5,308.5C 143.5,305.167 143.5,301.833 143.5,298.5 Z"/></g>
<g><path style="opacity:1" fill="#352e91" d="M 185.5,297.5 C 190.629,298.614 190.629,299.281 185.5,299.5C 186.54,302.403 187.873,305.236 189.5,308C 188.278,311.119 186.278,312.619 183.5,312.5C 185.167,311.5 186.5,310.167 187.5,308.5C 186.349,306.191 185.016,304.024 183.5,302C 184.044,300.415 184.711,298.915 185.5,297.5 Z"/></g>
<g><path style="opacity:1" fill="#2c21a0" d="M 210.5,298.5 C 211.5,298.5 212.5,298.5 213.5,298.5C 213.665,301.518 213.498,304.518 213,307.5C 212.586,307.957 212.086,308.291 211.5,308.5C 211.669,305.398 211.336,302.065 210.5,298.5 Z"/></g>
<g><path style="opacity:1" fill="#191497" d="M 315.5,307.5 C 315.599,304.763 315.265,302.096 314.5,299.5C 315.15,299.196 315.817,298.863 316.5,298.5C 317.833,301.833 317.833,305.167 316.5,308.5C 315.893,308.376 315.56,308.043 315.5,307.5 Z"/></g>
<g><path style="opacity:1" fill="#33289b" d="M 389.5,298.5 C 390.765,299.514 391.431,301.014 391.5,303C 391.167,304.5 390.833,306 390.5,307.5C 388.959,304.514 388.626,301.514 389.5,298.5 Z"/></g>
<g><path style="opacity:1" fill="#3327a7" d="M 104.5,316.5 C 104.5,316.167 104.5,315.833 104.5,315.5C 102.998,313.825 101.665,311.992 100.5,310C 95.8333,309.667 91.1667,309.333 86.5,309C 77.5043,304.28 75.171,297.447 79.5,288.5C 82.618,284.551 86.2847,281.051 90.5,278C 99.2814,276.474 105.781,279.641 110,287.5C 111.674,295.806 109.174,302.473 102.5,307.5C 103.934,311.268 106.6,313.602 110.5,314.5C 108.696,315.768 106.696,316.435 104.5,316.5 Z"/></g>
<g><path style="opacity:1" fill="#7672cc" d="M 83.5,286.5 C 83.0084,290.457 83.6751,294.123 85.5,297.5C 85.3333,297.833 85.1667,298.167 85,298.5C 82.0561,296.628 80.8895,293.961 81.5,290.5C 82.1667,289.167 82.8333,287.833 83.5,286.5 Z"/></g>
<g><path style="opacity:1" fill="#f8f7fc" d="M 79.5,288.5 C 81.2027,287.34 81.8693,288.007 81.5,290.5C 80.8895,293.961 82.0561,296.628 85,298.5C 85.1667,298.167 85.3333,297.833 85.5,297.5C 83.6751,294.123 83.0084,290.457 83.5,286.5C 88.1615,280.353 94.1615,278.853 101.5,282C 110.215,289.293 110.548,296.96 102.5,305C 99.969,303.564 97.1357,302.398 94,301.5C 92.5962,301.509 91.4296,302.009 90.5,303C 92.9519,303.29 95.2852,303.956 97.5,305C 98.8333,306 98.8333,307 97.5,308C 84.8463,307.841 78.8463,301.341 79.5,288.5 Z"/></g>
<g><path style="opacity:1" fill="#3c2ea9" d="M 123.5,300.5 C 125.614,301.784 126.614,303.784 126.5,306.5C 128.331,305.948 129.997,305.948 131.5,306.5C 129.956,308.446 127.956,308.946 125.5,308C 123.887,305.772 123.22,303.272 123.5,300.5 Z"/></g>
<g><path style="opacity:1" fill="#2c25a3" d="M 133.5,300.5 C 135.117,301.589 135.95,303.256 136,305.5C 142.019,307.398 141.852,308.231 135.5,308C 133.722,305.865 133.055,303.365 133.5,300.5 Z"/></g>
<g><path style="opacity:1" fill="#3e2ea7" d="M 355.5,285.5 C 355.929,286.953 356.096,288.619 356,290.5C 359.548,294.266 362.048,298.6 363.5,303.5C 362.807,308.151 360.141,309.651 355.5,308C 352.542,304.693 352.875,301.859 356.5,299.5C 356.833,299.667 357.167,299.833 357.5,300C 354.651,304.36 355.984,306.527 361.5,306.5C 361.66,304.801 361.494,303.134 361,301.5C 358.752,298.672 356.752,295.672 355,292.5C 354.297,290.071 354.463,287.738 355.5,285.5 Z"/></g>
<g><path style="opacity:1" fill="#35289f" d="M 203.5,298.5 C 204.833,298.5 206.167,298.5 207.5,298.5C 207.26,301.579 207.593,304.579 208.5,307.5C 205.608,307.386 202.608,307.719 199.5,308.5C 198.749,304.18 200.083,300.847 203.5,298.5 Z"/></g>
<g><path style="opacity:1" fill="#cdcae8" d="M 202.5,300.5 C 203.5,300.5 204.5,300.5 205.5,300.5C 205.5,302.5 205.5,304.5 205.5,306.5C 204.167,306.5 202.833,306.5 201.5,306.5C 201.325,304.379 201.659,302.379 202.5,300.5 Z"/></g>
<g><path style="opacity:1" fill="#716dae" d="M 216.5,302.5 C 217.167,304.167 217.833,305.833 218.5,307.5C 218.44,308.043 218.107,308.376 217.5,308.5C 216.534,306.604 216.201,304.604 216.5,302.5 Z"/></g>
<g><path style="opacity:1" fill="#acabdb" d="M 311.5,299.5 C 312.222,299.918 312.722,300.584 313,301.5C 313.278,300.584 313.778,299.918 314.5,299.5C 315.265,302.096 315.599,304.763 315.5,307.5C 314.837,305.958 314.17,304.291 313.5,302.5C 312.83,304.291 312.163,305.958 311.5,307.5C 311.5,304.833 311.5,302.167 311.5,299.5 Z"/></g>
<g><path style="opacity:1" fill="#403491" d="M 325.5,298.5 C 325.5,298.833 325.5,299.167 325.5,299.5C 322.909,300.991 321.909,303.325 322.5,306.5C 323.822,306.67 324.989,306.337 326,305.5C 326.495,303.527 326.662,301.527 326.5,299.5C 327.767,302.061 327.767,304.728 326.5,307.5C 324.621,308.341 322.621,308.675 320.5,308.5C 319.558,303.716 321.225,300.383 325.5,298.5 Z"/></g>
<g><path style="opacity:1" fill="#f5f3f8" d="M 325.5,299.5 C 325.833,299.5 326.167,299.5 326.5,299.5C 326.662,301.527 326.495,303.527 326,305.5C 324.989,306.337 323.822,306.67 322.5,306.5C 321.909,303.325 322.909,300.991 325.5,299.5 Z"/></g>
<g><path style="opacity:1" fill="#261fad" d="M 327.5,315.5 C 327.806,312.615 327.473,309.948 326.5,307.5C 327.767,304.728 327.767,302.061 326.5,299.5C 326.167,299.5 325.833,299.5 325.5,299.5C 325.5,299.167 325.5,298.833 325.5,298.5C 327.585,295.76 329.252,295.927 330.5,299C 329.821,304.688 328.821,310.188 327.5,315.5 Z"/></g>
<g><path style="opacity:1" fill="#3125a1" d="M 345.5,298.5 C 347.167,298.5 348.833,298.5 350.5,298.5C 350.46,301.881 350.793,305.214 351.5,308.5C 340.756,310.123 338.756,306.789 345.5,298.5 Z"/></g>
<g><path style="opacity:1" fill="#e7e7f5" d="M 345.5,300.5 C 346.5,300.5 347.5,300.5 348.5,300.5C 348.5,302.5 348.5,304.5 348.5,306.5C 343.294,306.541 342.294,304.541 345.5,300.5 Z"/></g>
<g><path style="opacity:1" fill="#3d30b6" d="M 367.5,298.5 C 370.346,298.03 372.679,298.863 374.5,301C 372.047,303.353 370.381,302.853 369.5,299.5C 368.526,301.743 368.192,304.076 368.5,306.5C 373.1,306.345 373.433,307.012 369.5,308.5C 366.855,307.738 365.521,305.904 365.5,303C 365.519,301.167 366.185,299.667 367.5,298.5 Z"/></g>
<g><path style="opacity:1" fill="#443cb5" d="M 380.5,308.5 C 379.833,308.167 379.167,307.833 378.5,307.5C 375.284,304.519 374.951,301.352 377.5,298C 378.635,297.251 379.635,297.417 380.5,298.5C 379.675,299.386 378.675,299.719 377.5,299.5C 377.977,302.655 378.977,305.655 380.5,308.5 Z"/></g>
<g><path style="opacity:1" fill="#3b2da6" d="M 223.5,284.5 C 224.314,286.631 224.814,288.964 225,291.5C 227.629,295.115 229.796,298.948 231.5,303C 230.486,308.024 227.652,309.524 223,307.5C 222.219,306.271 221.719,304.938 221.5,303.5C 222.614,301.215 223.947,299.048 225.5,297C 222.507,293.21 221.841,289.043 223.5,284.5 Z"/></g>
<g><path style="opacity:1" fill="#f0f0fa" d="M 225.5,299.5 C 229.264,300.385 230.264,302.552 228.5,306C 223.382,305.824 222.382,303.658 225.5,299.5 Z"/></g>
<g><path style="opacity:1" fill="#31279e" d="M 300.5,299.5 C 301.919,298.549 303.585,298.216 305.5,298.5C 305.26,301.579 305.593,304.579 306.5,307.5C 303.608,307.386 300.608,307.719 297.5,308.5C 297.248,305.68 297.748,303.014 299,300.5C 299.495,302.473 299.662,304.473 299.5,306.5C 300.822,306.67 301.989,306.337 303,305.5C 303.495,303.527 303.662,301.527 303.5,299.5C 302.5,299.5 301.5,299.5 300.5,299.5 Z"/></g>
<g><path style="opacity:1" fill="#7b7db2" d="M 378.5,307.5 C 379.167,307.833 379.833,308.167 380.5,308.5C 380.035,311.473 378.368,312.64 375.5,312C 377.863,311.411 378.863,309.911 378.5,307.5 Z"/></g>
<g><path style="opacity:1" fill="#2b31c0" d="M 78.5,310.5 C 80.3464,310.222 81.6798,310.889 82.5,312.5C 80.2048,315.822 77.2048,317.155 73.5,316.5C 75.1897,314.481 76.8564,312.481 78.5,310.5 Z"/></g>
<g><path style="opacity:1" fill="#d2dbd4" d="M -0.5,242.5 C 1.3918,253.517 3.3918,264.517 5.5,275.5C 8.73235,290.534 13.7323,304.867 20.5,318.5C 21.7866,321.406 22.7866,324.406 23.5,327.5C 22.2058,326.71 21.0391,325.71 20,324.5C 14.0575,310.069 8.72416,295.402 4,280.5C 3.50335,278.19 3.33669,275.857 3.5,273.5C 2.16667,273.5 0.833333,273.5 -0.5,273.5C -0.5,263.167 -0.5,252.833 -0.5,242.5 Z"/></g>
<g><path style="opacity:1" fill="#feb529" d="M 104.5,315.5 C 104.5,315.833 104.5,316.167 104.5,316.5C 104.788,319.866 104.954,323.2 105,326.5C 102.012,324.193 99.8453,321.36 98.5,318C 98.5852,316.893 98.9186,315.893 99.5,315C 101.197,314.616 102.863,314.782 104.5,315.5 Z"/></g>
<g><path style="opacity:1" fill="#f12c3f" d="M 91.5,314.5 C 92.7251,315.152 93.3917,316.319 93.5,318C 93.6906,319.973 93.024,321.473 91.5,322.5C 90.2706,319.801 90.2706,317.135 91.5,314.5 Z"/></g>
<g><path style="opacity:1" fill="#54509b" d="M 326.5,307.5 C 327.473,309.948 327.806,312.615 327.5,315.5C 327.356,320.813 324.69,322.979 319.5,322C 316.8,319.054 317.3,316.554 321,314.5C 321.115,316.107 320.615,317.607 319.5,319C 321.602,322.23 323.768,322.063 326,318.5C 326.499,314.848 326.665,311.182 326.5,307.5 Z"/></g>
<g><path style="opacity:1" fill="#d5566e" d="M 85.5,314.5 C 86.2389,314.369 86.9056,314.536 87.5,315C 85.6667,318.167 83.8333,321.333 82,324.5C 81.2825,325.451 80.4491,325.617 79.5,325C 81.9031,321.689 83.9031,318.189 85.5,314.5 Z"/></g>
<g><path style="opacity:1" fill="#d9ded6" d="M 447.5,244.5 C 448.167,246.167 448.833,247.833 449.5,249.5C 449.5,254.167 449.5,258.833 449.5,263.5C 448.307,263.97 447.64,264.97 447.5,266.5C 443.864,283.511 439.031,300.178 433,316.5C 396.641,389.046 338.808,433.379 259.5,449.5C 253.833,449.5 248.167,449.5 242.5,449.5C 240.369,448.686 238.036,448.186 235.5,448C 260.265,447.877 283.932,443.044 306.5,433.5C 316.155,430.175 325.489,426.008 334.5,421C 401.759,381.358 439.426,322.524 447.5,244.5 Z"/></g>
<g><path style="opacity:1" fill="#285e3c" d="M 19.5,307.5 C 43.8052,364.472 84.4719,405.139 141.5,429.5C 140.167,430.833 140.167,432.167 141.5,433.5C 101.223,417.061 68.0565,391.394 42,356.5C 35.5446,346.907 29.378,337.24 23.5,327.5C 22.7866,324.406 21.7866,321.406 20.5,318.5C 20.6107,317.883 20.944,317.383 21.5,317C 19.1515,314.116 18.4848,310.949 19.5,307.5 Z"/></g>
<g><path style="opacity:1" fill="#e1e6e4" d="M 23.5,327.5 C 29.378,337.24 35.5446,346.907 42,356.5C 68.0565,391.394 101.223,417.061 141.5,433.5C 161.761,441.274 182.428,446.607 203.5,449.5C 198.833,449.5 194.167,449.5 189.5,449.5C 165.42,444.423 141.754,436.923 118.5,427C 112.933,422.739 106.933,419.406 100.5,417C 91.8093,410.302 83.1426,403.636 74.5,397C 54.6526,377.824 37.8193,356.324 24,332.5C 23.5065,330.866 23.3398,329.199 23.5,327.5 Z"/></g>
<g><path style="opacity:1" fill="#285930" d="M 314.5,426.5 C 315.873,426.343 317.207,426.51 318.5,427C 318.167,427.333 317.833,427.667 317.5,428C 313.563,429.572 309.896,431.405 306.5,433.5C 283.932,443.044 260.265,447.877 235.5,448C 238.036,448.186 240.369,448.686 242.5,449.5C 229.5,449.5 216.5,449.5 203.5,449.5C 182.428,446.607 161.761,441.274 141.5,433.5C 140.167,432.167 140.167,430.833 141.5,429.5C 199.561,451.632 257.228,450.632 314.5,426.5 Z"/></g>
</svg>
